<?xml version="1.0" encoding="UTF-8" standalone="no"?>
<!-- Created with Inkscape (http://www.inkscape.org/) -->

<svg
   version="1.1"
   id="svg1"
   width="427.82666"
   height="522.30664"
   viewBox="0 0 427.82666 522.30664"
   sodipodi:docname="elks-logo.eps"
   xmlns:inkscape="http://www.inkscape.org/namespaces/inkscape"
   xmlns:sodipodi="http://sodipodi.sourceforge.net/DTD/sodipodi-0.dtd"
   xmlns="http://www.w3.org/2000/svg"
   xmlns:svg="http://www.w3.org/2000/svg">
  <defs
     id="defs1" />
  <sodipodi:namedview
     id="namedview1"
     pagecolor="#ffffff"
     bordercolor="#000000"
     borderopacity="0.25"
     inkscape:showpageshadow="2"
     inkscape:pageopacity="0.0"
     inkscape:pagecheckerboard="0"
     inkscape:deskcolor="#d1d1d1">
    <inkscape:page
       x="0"
       y="0"
       inkscape:label="1"
       id="page1"
       width="427.82666"
       height="522.30664"
       margin="0"
       bleed="0" />
  </sodipodi:namedview>
  <g
     id="g1"
     inkscape:groupmode="layer"
     inkscape:label="1">
    <g
       id="group-R5">
      <path
         id="path2"
         d="m 1649.18,3904.69 c 35.73,-15.78 54.03,-14.87 91.94,-24.71 226.92,-58.87 475.39,-235.7 629.67,-410.19 4.84,-5.47 15.47,-18.31 19.09,-23.85 4.01,-6.12 5.28,-10.4 -2.43,-11.87 -46.13,34.34 -87.88,74.66 -133.63,109.56 -361.54,275.71 -755.93,335.33 -1176.81,141.93 -181.514,-83.4 -420.764,-300.46 -527.6,-469.31 -181.18,-286.33 -286.398,-567.31 -329.656,-905.73 -61.293,-479.54 -4.238,-951.6 221.445,-1380.668 46.446,-88.301 106,-168.723 155.985,-254.231 2.515,-4.301 16.461,-28.66 1.597,-22.269 -8.105,3.476 -64.238,70.898 -74.019,83.398 -192.102,245.551 -320.367,473.45 -380.957,783.23 -36.7,187.63 -73.4534,404.63 -62.8284,595.43 6.9101,124.11 26.2694,276.54 49.1684,399.19 70.683,378.63 222.949,729.86 488.144,1009.59 237.391,250.4 568.111,409.12 920.341,391.8 13.77,-0.67 105.47,-9.06 110.55,-11.3"
         style="fill:#ef2e31;fill-opacity:1;fill-rule:nonzero;stroke:none"
         transform="matrix(0.13333333,0,0,-0.13333333,0,522.30667)" />
      <path
         id="path3"
         d="m 2518.6,3295.68 c 0.35,-12.45 12.28,-14.28 19.17,-21.44 C 2878.12,2920.39 3081.08,2267.33 3057.9,1781.16 3045.19,1514.4 3006.23,1195.64 2896.46,950.492 2644.31,387.391 2220.63,-50.5 1552.82,4.69922 1287.71,26.6094 912.617,225.281 775.012,457.539 c -3.746,6.32 -9.399,9.731 -6.907,19.289 13.25,-7.039 24.961,-18.387 35.883,-28.488 166.02,-153.43 348.552,-278.02 573.662,-332.61 217.56,-52.7612 493.87,-12.71 689.51,90.18 310.98,163.551 517.78,436.328 686.09,744.68 160.21,293.51 189.81,634.54 199.72,964.11 3.55,117.83 -15.23,232.82 -33.81,348.16 -48.8,302.96 -110.84,549.54 -272.49,815.03 -44.2,72.61 -99.25,139.67 -137.58,215.39 l 9.51,2.4"
         style="fill:#ef2e31;fill-opacity:1;fill-rule:nonzero;stroke:none"
         transform="matrix(0.13333333,0,0,-0.13333333,0,522.30667)" />
      <path
         id="path4"
         d="m 1986.15,3322.97 c -25.89,34.99 -97.52,89.07 -141.62,70.12 -19.29,-8.29 -64.2,-88.48 -75.83,-111.26 -85.71,-167.97 -154.01,-347.76 -232.2,-521.38 -135,-299.75 -285.04,-601.64 -400.55,-909.15 -10.69,-28.48 -31.5,-43.06 -22.1,-77.3 8.72,-31.77 100.56,-116.02 131.07,-127.65 51.29,-19.55 78.37,43.61 97.61,74.22 74.3,118.25 120.97,243.77 179.83,371.33 126.92,275.08 258.08,552.93 384.5,828.82 51.91,113.26 164.72,286.79 79.29,402.25 z M 3202.2,2485.59 c -33.18,39.06 -57.21,78.59 -113.29,85.9 -112.63,14.7 -221.94,-37.64 -312.15,-99.58 -85.2,-58.51 -289.68,-257.08 -322.36,-350.01 -6.04,-17.18 -9.03,-43.35 -2.25,-60.45 1.2,-3 30.43,-47.64 34.73,-53.43 79.7,-107.17 205.41,-44.98 315.06,-42.15 l 32.07,-29.41 c -1.61,-9.63 -17.61,-33.77 -25.98,-40.54 -18.24,-14.76 -135.33,-61.91 -160.25,-65.29 -57.31,-7.79 -94.92,20.67 -152.08,14.48 -70.82,-7.67 -130.77,-55.07 -165.63,-114.85 -119.77,76.66 -243.97,145.34 -354.58,234.46 -2.17,7.1 1.21,10.8 4.82,16.12 14.07,20.7 96.85,49.44 123.16,63.92 116.24,63.98 320.9,208.14 416.5,298.79 61.85,58.65 89.32,122.76 45.06,204.78 -16.34,30.29 -36.1,33.48 -68.63,27.81 -105.21,-18.36 -225.37,-187.3 -312.51,-248.67 -12.95,-9.12 -69.82,-38.81 -76.42,-16.26 -2.66,9.12 69.09,152.09 79.41,172.83 87.57,175.89 186.44,350.35 275.87,524.6 19.46,37.9 37.45,76.22 28.36,120.52 -8.48,41.34 -35.74,30.62 -48.66,44.86 -21.01,23.19 -16.37,84.94 -67.74,79.92 -36.46,-3.56 -96.82,-45.9 -118.13,-74.81 -18.27,-24.78 -26.84,-64.54 -40.11,-91.95 -103.13,-213.1 -216.26,-421.77 -319.89,-632.22 -59.12,-120.06 -114.52,-275.11 -185.41,-382.24 -24.29,-36.7 -47.69,-54.52 -68.56,-84.32 -28.82,-41.14 -13.44,-62.81 -22.04,-104.5 -9.13,-44.27 -65.26,-106.63 -63.85,-150.8 1.64,-51.39 81.72,-138.25 134.87,-135.23 71.29,4.06 103.06,104.74 137.66,154.35 35.52,32.13 127.97,-71.86 154.31,-93.44 37.52,-30.74 164.8,-142.02 200.54,-151.61 8.17,-2.2 15.82,-4.31 24.39,-2.47 40.81,8.1 111.42,62.3 145.9,68.8 11.68,2.2 29.7,-15.44 42.96,-18.19 62.24,-12.92 183.37,54.2 242.34,74.31 103.72,35.38 220.02,35.19 316.73,101.45 89.8,61.53 173.18,222.92 99.58,323.34 -22.89,31.23 -114.88,62.72 -153.79,66.3 -28.38,2.61 -150.41,-12.74 -151.12,24.71 1.6,13.28 10.12,21.77 19.19,30.36 22.31,21.14 102.69,69.25 133.09,87 52.35,30.56 118.81,65.43 174.01,90.09 25.31,11.31 64.32,16.95 85.85,29.7 31.53,18.67 58.12,67.15 38.97,103.02 z M 921.227,1785.42 c -114.969,-4.47 -342.86,-182.03 -459.434,-233.85 -30.871,-13.73 -10.414,22.38 -2.145,35.15 72.649,112.21 221.329,278.05 315.739,377.53 124.488,131.18 268.893,245.47 395.643,374.66 5.99,14.29 17.62,30.75 20.48,45.75 6.69,34.98 -26.95,114.83 -58.49,134.78 -23.37,14.78 -46.82,10.1 -70.69,-0.31 -66.498,-29.02 -176.279,-120.58 -243.111,-164.05 -116.586,-75.83 -238.766,-161.89 -362.598,-226.14 -36.027,-18.69 -78.269,-36.07 -118.816,-40.85 -13.262,-1.57 -9.02,14.61 -6.668,23.27 5.168,19.03 46.906,70.14 62.031,86.53 214.469,232.42 451.832,444.36 685.032,657.5 161.2,147.33 383.48,300.55 457.66,510.88 7.73,21.9 5.31,48.78 -1.44,70.62 -1.24,4 -7.9,4.93 -8.32,6.34 -7.3,24.55 -9.64,50.79 -23,73.46 -28.15,47.75 -73.7,75.9 -125,40.17 -130.27,-90.72 -274.53,-285.49 -390.471,-401.84 -298.871,-299.94 -746.566,-623.63 -945.3321,-991.67 -40.78909,-75.53 -69.668,-201.64 -1.0586,-267.98 75.4457,-72.94 157.8557,-77.82 256.8357,-53.56 21.328,5.23 129.5,60.55 86.844,1.19 -18.563,-25.82 -55.27,-51.19 -76.852,-77.2 -57.035,-68.72 -126.257,-177.83 -166.152,-257.51 -36.684,-73.26 -36.348,-130.82 15.203,-195.79 22.137,-27.91 118.457,-103.02 150.871,-113.24 82.219,-25.92 108,5.58 172.219,36.78 122.945,59.75 237.223,130.26 359.508,190.72 71.129,35.17 156.851,64.6 224.005,106.13 53.56,33.13 45.44,100.19 25.77,150.71 -27.09,69.56 -95.174,104.66 -168.263,101.82"
         style="fill:#2d2c5f;fill-opacity:1;fill-rule:nonzero;stroke:none"
         transform="matrix(0.13333333,0,0,-0.13333333,0,522.30667)" />
      <path
         id="path5"
         d="m 1514.48,910.59 c -32.47,-34.891 -60.32,-52.328 -83.52,-52.328 -12.1,0 -23.42,5.468 -33.97,16.449 -10.54,10.969 -15.38,29.398 -14.52,55.32 -24.92,-47.851 -53.27,-71.769 -85.02,-71.769 -15.38,0 -27.73,5.898 -37.07,17.726 -9.33,11.821 -13.99,27.692 -13.99,47.633 0,21.5 8.68,57.039 26.06,106.599 14.67,42.43 22.01,70.62 22.01,84.59 0,9.96 -2.31,17.98 -6.94,24.04 -4.64,6.04 -10.66,9.07 -18.06,9.07 -11.24,0 -22.13,-6.66 -32.68,-19.97 -10.54,-13.32 -15.81,-27.24 -15.81,-41.77 0,-12.81 4.78,-23.57 14.32,-32.25 3.55,-3.13 5.34,-5.77 5.34,-7.91 0,-4.7 -3.13,-10.46 -9.4,-17.3 -6.28,-6.83 -11.89,-10.25 -16.88,-10.25 -5.84,0 -11.4,4.19 -16.66,12.6 -5.26,8.41 -7.9,17.59 -7.9,27.56 0,27.2 9.82,52.16 29.47,74.88 19.66,22.7 41.1,34.06 64.3,34.06 18.24,0 33.04,-7.09 44.43,-21.25 11.4,-14.17 17.09,-32.72 17.09,-55.65 0.04,-26.94 -8.37,-63.95 -25.18,-111.08 -11.69,-32.61 -17.54,-54.61 -17.54,-66.008 0,-7.402 1.67,-13.203 5.01,-17.402 3.36,-4.211 7.94,-6.309 13.79,-6.309 10.97,0 21.44,7.399 31.4,22.219 9.96,14.808 17.9,30.332 23.83,46.57 5.9,16.231 13.05,39.942 21.46,71.13 l 18.58,66.43 c 5.13,17.65 9.63,32.16 13.48,43.48 3.84,11.32 6.31,17.73 7.38,19.23 1.06,1.49 2.85,2.52 5.34,3.09 2.5,0.56 7.24,1.28 14.23,2.13 l 30.59,3.42 c 4.42,0 6.35,-1.01 5.76,-3.01 l -10.05,-36.32 c -9.42,-33.45 -19.44,-73.11 -30.07,-118.96 -10.64,-45.85 -15.94,-75.05 -15.94,-87.581 0,-9.398 1.79,-16.91 5.34,-22.527 3.55,-5.633 8.33,-8.442 14.31,-8.442 6.7,0 13.97,2.93 21.79,8.79 7.83,5.871 19.79,17.75 35.89,35.64 v -24.57"
         style="fill:#2d2c5f;fill-opacity:1;fill-rule:nonzero;stroke:none"
         transform="matrix(0.13333333,0,0,-0.13333333,0,522.30667)" />
      <path
         id="path6"
         d="m 1737.49,1129.12 c 0,-5.55 -9.18,-19.23 -27.55,-41.01 h -3.85 c -2.85,1.14 -4.62,5.34 -5.34,12.6 -1.57,14.66 -6.62,26.66 -15.17,36 -8.54,9.32 -18.79,13.98 -30.76,13.98 -11.24,0 -20.93,-4.07 -29.05,-12.27 -8.12,-8.17 -12.17,-17.94 -12.17,-29.32 0,-8.26 2.58,-17.11 7.72,-26.57 5.17,-9.46 18.51,-24.47 40.07,-44.99 21.53,-20.55 35.38,-36.9 41.5,-49.079 6.11,-12.172 9.18,-23.75 9.18,-34.723 0,-25.34 -10.99,-47.668 -33.01,-66.957 -21.98,-19.301 -47.73,-28.953 -77.21,-28.953 -24.36,0 -44.43,5.672 -60.24,16.992 -15.81,11.321 -23.71,20.532 -23.71,27.66 0,3.981 4.35,13.239 13.03,27.758 8.68,14.532 13.67,21.793 14.95,21.793 4.56,0 7.81,-1.32 9.71,-3.941 1.94,-2.641 3.24,-7.512 3.96,-14.641 2.14,-22.219 7.52,-37.519 16.12,-45.929 8.62,-8.411 19.85,-12.598 33.65,-12.598 15.09,0 28.28,5.219 39.52,15.687 11.25,10.473 16.88,22.582 16.88,36.391 0,7.109 -2.2,14.68 -6.55,22.719 -4.37,8.043 -16.7,21.73 -36.95,41.062 -20.28,19.319 -33.54,35.669 -39.81,49.049 -6.27,13.38 -9.4,26.41 -9.4,39.09 0,22.08 8.33,42.37 24.99,60.88 16.66,18.51 38.8,27.77 66.44,27.77 20.93,0 38.35,-4.8 52.21,-14.41 13.91,-9.61 20.84,-17.63 20.84,-24.04"
         style="fill:#2d2c5f;fill-opacity:1;fill-rule:nonzero;stroke:none"
         transform="matrix(0.13333333,0,0,-0.13333333,0,522.30667)" />
      <path
         id="path7"
         d="m 1973.24,1140.44 c -13.11,7.13 -27.2,10.68 -42.29,10.68 -23.79,0 -45.21,-9.92 -64.3,-29.79 -19.09,-19.86 -34.14,-46.18 -45.19,-78.94 -11.03,-32.76 -16.54,-61.171 -16.54,-85.23 0,-16.101 3.1,-29.148 9.28,-39.191 6.21,-10.039 14.14,-15.071 23.83,-15.071 16.79,0 36.1,15.301 57.88,45.934 8.98,80.318 34.75,144.188 77.33,191.608 z m 62.16,-230.268 c -32.76,-34.902 -62.8,-52.344 -90.14,-52.344 -15.09,0 -27.05,5.344 -35.89,16.024 -8.83,10.679 -13.75,25.929 -14.74,45.707 -17.22,-20.93 -32.5,-36.45 -45.83,-46.559 -13.3,-10.102 -27.51,-15.172 -42.6,-15.172 -19.36,0 -34.92,8.371 -46.69,25.113 -11.73,16.719 -17.61,39.047 -17.61,66.957 0,33.321 7.69,67.672 23.07,103.082 15.38,35.38 38.16,63.32 68.36,83.83 30.19,20.51 66.78,30.76 109.79,30.76 32.18,0 61.31,-4.35 87.37,-13.03 v -14.1 c -21.22,-24.78 -38.99,-59.46 -53.29,-104.03 -14.33,-44.57 -21.47,-78.531 -21.47,-101.89 0,-11.399 2.31,-20.219 6.95,-26.489 4.62,-6.269 11.07,-9.402 19.32,-9.402 14.82,0 32.61,12.043 53.4,36.101 v -24.558"
         style="fill:#2d2c5f;fill-opacity:1;fill-rule:nonzero;stroke:none"
         transform="matrix(0.13333333,0,0,-0.13333333,0,522.30667)" />
    </g>
  </g>
</svg>
