<svg xmlns="http://www.w3.org/2000/svg" xml:space="preserve" viewBox="0 0 2560 1600"><pattern id="a" width="260" height="250" overflow="visible" patternUnits="userSpaceOnUse" viewBox="0 -487.583 260 250"><path fill="none" d="M0-487.583h260v250H0z"/><path d="M260-250.167 130-25V0l130-225.167z"/><path fill="#FFF" d="M130 0 0-225.167v-25L130-25zM260-275.167 130-50v25l130-225.167z"/><path d="M260-300.167 130-75v25l130-225.167z"/><path fill="#FFF" d="M130-50 0-275.167v-25L130-75z"/><path d="M130-25 0-250.167v-25L130-50z"/><path fill="#FFF" d="M260-325.167 130-100v25l130-225.167z"/><path d="M260-350.167 130-125v25l130-225.167z"/><path fill="#FFF" d="M130-100 0-325.167v-25L130-125z"/><path d="M130-75 0-300.167v-25L130-100z"/><path fill="#FFF" d="M260-375.167 130-150v25l130-225.167z"/><path d="M260-400.167 130-175v25l130-225.167z"/><path fill="#FFF" d="M130-150 0-375.167v-25L130-175z"/><path d="M130-125 0-350.167v-25L130-150z"/><path fill="#FFF" d="M260-425.167 130-200v25l130-225.167z"/><path d="M260-450.167 130-225v25l130-225.167z"/><path fill="#FFF" d="M130-200 0-425.167v-25L130-225z"/><path d="M130-175 0-400.167v-25L130-200z"/><path fill="#FFF" d="M260-475.167 130-250v25l130-225.167z"/><path d="M260-500.167 130-275v25l130-225.167z"/><path fill="#FFF" d="M130-250 0-475.167v-25L130-275z"/><path d="M130-225 0-450.167v-25L130-250z"/><path fill="#FFF" d="M260-525.167 130-300v25l130-225.167z"/><path d="M260-550.167 130-325v25l130-225.167z"/><path fill="#FFF" d="M130-300 0-525.167v-25L130-325z"/><path d="M130-275 0-500.167v-25L130-300z"/><path fill="#FFF" d="M260-575.167 130-350v25l130-225.167z"/><path d="M260-600.167 130-375v25l130-225.167z"/><path fill="#FFF" d="M130-350 0-575.167v-25L130-375z"/><path d="M130-325 0-550.167v-25L130-350z"/><path fill="#FFF" d="M260-625.167 130-400v25l130-225.167z"/><path d="M260-650.167 130-425v25l130-225.167z"/><path fill="#FFF" d="M130-400 0-625.167v-25L130-425z"/><path d="M130-375 0-600.167v-25L130-400z"/><path fill="#FFF" d="M260-675.167 130-450v25l130-225.167z"/><path d="M260-700.167 130-475v25l130-225.167z"/><path fill="#FFF" d="M130-450 0-675.167v-25L130-475z"/><path d="M130-425 0-650.167v-25L130-450z"/><path fill="#FFF" d="M260-725.167 130-500v25l130-225.167z"/><path d="M130-475 0-700.167v-25L130-500z"/></pattern><path fill="url(#a)" d="M0 0h2560v1600H0z"/></svg>
